<svg width="300" height="300" viewBox="0 0 300 300" fill="none" xmlns="http://www.w3.org/2000/svg">
<circle cx="150" cy="150" r="150" fill="#2BA977"/>
<path d="M128.471 65H159.788V208.536C143.746 211.571 131.937 212.765 119.16 212.765C80.9107 212.725 61 195.637 61 162.818C61 131.197 82.1198 110.675 114.848 110.675C119.926 110.675 123.795 111.074 128.471 112.272V65ZM129.568 138.139C125.9 136.941 122.878 136.542 119.008 136.542C103.168 136.542 94.0193 146.203 94.0193 163.136C94.0193 179.621 102.766 188.724 118.807 188.724C122.273 188.724 125.094 188.529 129.568 187.93V138.139Z" fill="white"/>
<path d="M211 114.528V186.395C211 211.145 209.146 223.046 203.705 233.308C198.626 243.173 191.936 249.394 178.111 256.264L149.051 242.57C162.876 236.146 169.566 230.469 173.839 221.805C178.312 212.946 179.723 202.684 179.723 175.695V114.529H211V114.528ZM176.567 65H207.884V96.8208H176.567V65Z" fill="white"/>
</svg>
