<svg width="300" height="300" viewBox="0 0 300 300" fill="none" xmlns="http://www.w3.org/2000/svg">
<circle cx="150" cy="150" r="150" fill="#09D9FF"/>
<path d="M110.989 124.364C110.989 124.364 101.209 85.063 115.683 78.9833C130.156 72.9035 150.887 97.0054 150.887 97.0054M110.989 124.364C110.989 124.364 165.556 255.73 194.502 221.64C208.246 205.455 199.107 176.542 185.716 150.637M110.989 124.364C110.989 124.364 80.6733 133.918 78.1307 150.637C75.5881 167.357 110.989 177.732 110.989 177.732M110.989 124.364C110.989 124.364 225.013 103.302 227.947 150.637C230.881 197.973 110.989 177.732 110.989 177.732M150.887 97.0054C150.887 97.0054 170.837 74.6406 188.83 78.9833C206.824 83.3259 185.716 150.637 185.716 150.637M150.887 97.0054C150.887 97.0054 170.903 121.982 185.716 150.637M150.887 97.0054C150.887 97.0054 122.934 140.652 110.989 177.732M185.716 150.637C185.716 150.637 141.891 247.479 112.944 224.463C102.711 216.326 104.456 198.011 110.989 177.732" stroke="white" stroke-width="7"/>
<ellipse cx="152.843" cy="151.289" rx="13.6908" ry="15.1994" fill="white"/>
</svg>
