<svg width="300" height="300" viewBox="0 0 300 300" fill="none" xmlns="http://www.w3.org/2000/svg">
<circle cx="150" cy="150" r="150" fill="#CD6799"/>
<path fill-rule="evenodd" clip-rule="evenodd" d="M99.1835 130.552C99.1835 130.552 116.221 150.108 154.753 122.99C154.753 122.99 173.102 110.474 165.5 95.8723C157.899 81.2703 124.871 89.875 124.871 89.875C124.871 89.875 89.485 100.305 71.3986 122.99C53.3123 145.676 86.8638 164.45 86.8638 164.45L97.3487 173.315L117.27 163.146C117.27 163.146 123.561 155.063 132.735 151.934C141.909 148.805 141.909 159.495 141.909 159.495V163.146C141.909 163.146 143.22 161.842 146.103 163.146C148.987 164.45 147.938 167.579 147.938 167.579L143.744 183.484L142.958 186.613L143.22 191.828L145.317 188.699L153.18 172.272C153.831 170.896 154.452 169.598 155.044 168.359L155.045 168.358C158.977 160.136 161.679 154.489 163.665 145.415C169.922 142.638 172.823 142.336 176.247 145.415C176.247 145.415 173.102 153.237 173.626 158.192C174.15 163.146 177.296 167.579 177.296 167.579C182.274 161.317 184.833 156.1 189.353 146.458L190.664 139.678C198.207 137.124 201.404 136.694 203.246 139.678L201.411 146.458C200.426 156.387 201.562 160.157 205.867 164.45L206.461 164.321C226.372 160.026 233.683 158.449 244.661 167.579C244.661 167.579 252 173.054 252 182.441C252 191.828 241.515 197.565 239.942 194.697C239.942 194.697 247.555 191.828 246.758 182.441C245.96 173.054 234.962 169.925 234.962 169.925C234.962 169.925 228.147 167.579 221.07 167.579C213.992 167.579 207.439 169.925 207.439 169.925C207.439 169.925 210.061 175.662 208.75 181.138C207.439 186.613 200.362 190.264 200.362 190.264C200.362 190.264 193.809 194.697 188.567 192.611C183.324 190.525 188.567 181.138 188.567 181.138L197.217 169.925C194.017 165.553 191.636 157.552 192.217 155.5L179.917 174.619C179.917 174.619 182.538 181.398 181.49 187.917C180.441 194.436 171.529 198.086 171.529 198.086C171.529 198.086 164.452 201.998 158.423 200.173C152.394 198.347 163.141 187.917 164.714 186.613C166.287 185.31 171.267 177.487 171.267 177.487C167.6 170.591 166.189 166.812 165.238 160.278L153.705 185.049C153.705 185.049 146.103 202.259 139.812 203.562C133.521 204.866 134.046 194.436 134.046 194.436L134.308 187.656L131.424 194.697C131.424 194.697 128.017 204.345 123.037 206.17C118.056 207.995 113.076 199.39 113.076 199.39C113.076 199.39 110.455 194.436 110.455 187.656C110.455 180.877 113.076 172.794 113.076 172.794L102.067 179.052C102.067 179.052 104.164 188.96 103.115 199.39C102.067 209.82 87.6502 220.25 87.6502 220.25C87.6502 220.25 77.9517 228.073 65.1078 223.64C52.2639 219.207 59.3411 202.78 59.3411 202.78C62.7595 195.268 66.2256 191.763 74.8063 186.613L90.5336 177.487C90.5336 177.487 79.2624 170.708 59.3411 153.498C39.4199 136.289 61.4381 113.603 61.4381 113.603C61.4381 113.603 79.2623 93.2648 100.756 85.4423L108.62 82.3133C108.62 82.3133 130.114 70.5795 157.112 76.8375C184.111 83.0955 176.247 109.431 176.247 109.431C176.247 109.431 171.791 123.251 156.326 133.42C140.861 143.59 118.58 143.329 118.58 143.329C118.58 143.329 107.571 144.372 100.756 136.549C93.9411 128.727 99.1835 130.552 99.1835 130.552ZM77.1653 194.697C77.1653 194.697 65.632 204.345 71.3986 211.124C77.1653 217.904 89.2229 206.17 89.2229 206.17C96.4341 196.862 97.3719 190.366 95.2517 181.92C91.7123 182.939 88.4553 185.598 83.6814 189.495C81.786 191.042 79.6515 192.784 77.1653 194.697ZM124.085 170.186C132.735 155.323 135.618 158.974 135.618 158.974C135.67 159.1 135.721 159.21 135.769 159.314C136.031 159.88 136.217 160.282 136.143 162.364C134.806 167.976 133.714 171.461 130.9 178.53C126.297 190.123 123.77 196.354 121.988 193.914C121.988 193.914 115.435 185.049 124.085 170.186ZM192.761 186.092C194.012 181.771 195.163 179.459 198.527 175.662L200.362 173.837C200.362 173.837 201.673 177.748 199.838 181.92C198.003 186.092 192.761 187.917 192.761 187.917V186.092ZM173.626 183.224L163.927 194.436C163.927 194.436 167.859 194.697 171.005 190.003C174.15 185.31 173.626 183.224 173.626 183.224Z" fill="white"/>
</svg>
